# xmcd
#
# Track frame offsets:
#	151
#	6488
#	20437
#	36420
#	49637
#	62374
#	88345
#	101684
#	114018
#	137009
#	155950
#	168463
#	182962
#	195823
#	212212
#	228319
#	241596
#	264793
#	279972
#	300733
#	313402
#	326127
#	342824
#	357153
#
# Disc length: 4799 seconds
#
# Revision: 0
# Processed by: cddbd v1.5.2PL0 Copyright (c) Steve Scherf et al.
# Submitted via: dBpowerAMP V4.0
#
DISCID=5112bd18
DTITLE=Steve Arvey - Big Road Blues
DYEAR=2007
DGENRE=Blues
TTITLE0=Christmas Time Intro
TTITLE1=Cold wind from Chicago
TTITLE2=Big road
TTITLE3=Mardi gras
TTITLE4=Movin down the line
TTITLE5=Five YYY
TTITLE6=When I get drunk
TTITLE7=Proverbs
TTITLE8=Two roads
TTITLE9=Rootin in bruthen
TTITLE10=Peshtigo river blues
TTITLE11=44 blues
TTITLE12=Get away
TTITLE13=Bridge torn down
TTITLE14=The pain is gone
TTITLE15=WRFG
TTITLE16=Blues messiah
TTITLE17=Trouble no more
TTITLE18=Set a date
TTITLE19=Ocean blvd
TTITLE20=If I had possession of judgement day
TTITLE21=Die easy
TTITLE22=Whiskey wine and song
TTITLE23=plus
EXTD=compilation Steve Arvey
EXTT0=
EXTT1=
EXTT2=
EXTT3=
EXTT4=
EXTT5=
EXTT6=
EXTT7=
EXTT8=
EXTT9=
EXTT10=
EXTT11=
EXTT12=
EXTT13=
EXTT14=
EXTT15=
EXTT16=
EXTT17=
EXTT18=
EXTT19=
EXTT20=
EXTT21=
EXTT22=
EXTT23=
PLAYORDER=
